# This file uses centimeters as units for non-parametric coordinates.

g default
v -1.495486 3.147989 -0.041995
v 1.495488 3.147989 -0.041996
v -1.495486 3.147989 0.041997
v 1.495488 3.147989 0.041995
v -1.495486 5.358709 0.041997
v 1.495488 5.358709 0.041995
v -1.495486 5.358709 -0.041995
v 1.495488 5.358709 -0.041996
v 0.105557 5.358709 0.041997
v 0.105557 5.358709 -0.041996
v 0.105557 3.147989 -0.041996
v 0.105557 3.147989 0.041997
v -0.115462 5.358709 0.041995
v -0.115462 5.358709 -0.041996
v -0.115462 3.147989 -0.041996
v -0.115462 3.147989 0.041995
v -0.115462 0.024029 -0.041996
v -0.115462 0.024029 0.041995
v 0.105557 0.024029 -0.041996
v 0.105557 0.024029 0.041997
vt 0.069615 0.499967
vt 0.651856 0.500041
vt 0.069606 0.569582
vt 0.721471 0.500050
vt 0.069678 0.000000
vt 0.651920 0.000074
vt 0.069669 0.069615
vt 0.651911 0.069689
vt 0.381347 0.000039
vt 0.381338 0.069654
vt 0.381284 0.500007
vt 0.381275 0.569623
vt 0.338322 0.000034
vt 0.338313 0.069649
vt 0.338259 0.500001
vt 0.338250 0.569616
vt 0.008386 0.003034
vt 0.464127 0.003056
vt 0.464067 0.988639
vt 0.008327 0.988617
vt 0.537056 0.988642
vt 0.537116 0.003059
vt 0.996128 0.003081
vt 0.996069 0.988664
vt 0.950009 0.651154
vt 0.880395 0.651154
vt 0.880394 0.043025
vt 0.950009 0.043025
vt 0.837370 0.651154
vt 0.767754 0.651154
vt 0.767753 0.043025
vt 0.837369 0.043025
vt 0.880394 0.000000
vt 0.950010 0.000000
vt 0.724729 0.651154
vt 0.724728 0.043025
vt 0.651847 0.569656
vt 0.721525 0.069697
vt 0.000055 0.069606
vt 0.000000 0.499958
vn 0.000000 -1.000000 0.000000
vn 0.000000 -1.000000 0.000000
vn 0.000000 -1.000000 0.000000
vn 0.000000 -1.000000 0.000000
vn 0.000001 0.000000 1.000000
vn -0.000001 0.000000 1.000000
vn 0.000000 0.000000 1.000000
vn 0.000001 0.000000 1.000000
vn 0.000000 1.000000 0.000000
vn 0.000000 1.000000 0.000000
vn 0.000000 1.000000 0.000000
vn 0.000000 1.000000 0.000000
vn -0.000001 0.000000 -1.000000
vn -0.000001 0.000000 -1.000000
vn -0.000001 0.000000 -1.000000
vn -0.000001 0.000000 -1.000000
vn 1.000000 0.000000 0.000000
vn 1.000000 0.000000 0.000000
vn 1.000000 0.000000 0.000000
vn 1.000000 0.000000 0.000000
vn -1.000000 0.000000 0.000000
vn -1.000000 0.000000 0.000000
vn -1.000000 0.000000 0.000000
vn -1.000000 0.000000 0.000000
vn 0.000000 1.000000 0.000000
vn 0.000000 1.000000 0.000000
vn 0.000000 1.000000 0.000000
vn 0.000000 1.000000 0.000000
vn 0.000000 0.000000 -1.000000
vn 0.000000 0.000000 -1.000000
vn 0.000000 0.000000 -1.000000
vn 0.000000 0.000000 -1.000000
vn 0.000000 -1.000000 0.000000
vn 0.000000 -1.000000 0.000000
vn 0.000000 -1.000000 0.000000
vn 0.000000 -1.000000 0.000000
vn 0.000000 0.000000 1.000000
vn -0.000001 0.000000 1.000000
vn 0.000001 0.000000 1.000000
vn 0.000001 0.000000 1.000000
vn 0.000000 1.000000 0.000000
vn 0.000000 1.000000 0.000000
vn 0.000000 1.000000 0.000000
vn 0.000000 1.000000 0.000000
vn -0.000001 0.000000 -1.000000
vn -0.000001 0.000000 -1.000000
vn 0.000000 0.000000 -1.000000
vn 0.000000 0.000000 -1.000000
vn 0.000000 -1.000000 0.000000
vn 0.000000 -1.000000 0.000000
vn 0.000000 -1.000000 0.000000
vn 0.000000 -1.000000 0.000000
vn 0.000000 0.000000 1.000000
vn -0.000001 0.000000 1.000000
vn -0.000001 0.000000 1.000000
vn 0.000000 0.000000 1.000000
vn -1.000000 0.000000 0.000000
vn -1.000000 0.000000 0.000000
vn -1.000000 0.000000 0.000000
vn -1.000000 0.000000 0.000000
vn -0.000001 0.000000 -1.000000
vn 0.000000 0.000000 -1.000000
vn 0.000000 0.000000 -1.000000
vn 0.000000 0.000000 -1.000000
vn 1.000000 0.000000 0.000000
vn 1.000000 0.000000 0.000000
vn 1.000000 0.000000 0.000000
vn 1.000000 0.000000 0.000000
vn -0.000001 0.000000 1.000000
vn -0.000001 0.000000 1.000000
vn -0.000007 0.000000 1.000000
vn -0.000007 0.000000 1.000000
s off
g Danger_high_voltage_Poster
f 1/1/1 15/15/2 16/16/3 3/3/4
f 3/17/5 16/18/6 13/19/7 5/20/8
f 5/5/9 13/13/10 14/14/11 7/7/12
f 7/7/13 14/14/14 15/15/15 1/1/16
f 2/2/17 8/8/18 6/38/19 4/4/20
f 7/7/21 1/1/22 3/40/23 5/39/24
f 9/9/25 6/6/26 8/8/27 10/10/28
f 11/11/29 10/10/30 8/8/31 2/2/32
f 12/12/33 11/11/34 2/2/35 4/37/36
f 9/21/37 12/22/38 4/23/39 6/24/40
f 13/13/41 9/9/42 10/10/43 14/14/44
f 15/15/45 14/14/46 10/10/47 11/11/48
f 18/28/49 17/27/50 19/33/51 20/34/52
f 13/19/53 16/18/54 12/22/55 9/21/56
f 16/25/57 15/26/58 17/27/59 18/28/60
f 15/26/61 11/29/62 19/32/63 17/27/64
f 11/29/65 12/30/66 20/31/67 19/32/68
f 12/30/69 16/35/70 18/36/71 20/31/72
